<svg width="116" height="30" viewBox="0 0 116 30" fill="none" xmlns="http://www.w3.org/2000/svg">
<g clip-path="url(#clip0_34_1254)">
<path d="M50.5565 29.1351V17.5931C50.5565 14.3081 49.1899 12.6442 46.4935 12.6442C45.6859 12.6442 45.1046 12.7651 44.4198 13.0743L44.2764 13.1386L44.3148 13.2963C44.3873 13.5994 44.4686 14.3678 44.4686 14.9878V29.1367H38.1219V17.5931C38.1219 14.3081 36.7153 12.6442 33.939 12.6442C33.2616 12.6442 32.7292 12.7345 32.1582 12.9457L32.0355 12.9916V29.1382H25.6887V9.11574L32.0355 8.37331V12.214C33.4864 9.5964 35.7953 8.30902 38.6573 8.30902C41.5193 8.30902 43.42 9.75866 44.1565 12.3916C45.2585 10.3771 47.2981 8.30902 51.0905 8.30902C54.8829 8.30902 56.9018 10.8822 56.9018 15.1929V29.1351H50.5551H50.5565Z" fill="#E6FFFA"/>
<path d="M112.097 10.2317C110.665 9.15554 109.073 8.58609 107.494 8.58609C105.353 8.58609 103.537 9.64385 102.508 11.4884C102.407 11.6675 102.318 11.8528 102.237 12.0395C102.386 12.0288 102.537 12.0227 102.69 12.0227C104.269 12.0227 105.861 12.5921 107.293 13.6682C110.697 16.2277 112.095 20.8506 110.597 24.2566C112.539 24.1173 114.175 23.084 115.13 21.3711C117.05 17.9284 115.689 12.9319 112.098 10.2317H112.097Z" fill="#E6FFFA"/>
<path d="M113.98 24.6668C113.968 24.6668 113.956 24.6699 113.946 24.6775C112.807 25.4062 111.459 25.7996 109.995 25.7996C108.094 25.7996 106.2 25.1322 104.518 23.8693C100.369 20.7526 98.8486 14.8929 101.128 10.8042C101.313 10.472 101.518 10.1597 101.742 9.86888C101.752 9.8551 101.756 9.84591 101.756 9.83214C101.756 9.80305 101.734 9.78009 101.706 9.78009C101.694 9.78009 101.683 9.78468 101.675 9.79081L99.205 12.1007C98.2821 12.9656 97.2793 13.8596 96.6359 15.0046C94.3477 19.0872 95.8771 24.9531 100.026 28.0697C101.708 29.3326 103.602 30 105.503 30C108.508 29.9847 110.075 28.4692 111.583 27.0487L114.024 24.7663C114.033 24.7556 114.037 24.7418 114.037 24.7265C114.037 24.6944 114.012 24.6668 113.98 24.6668Z" fill="#E6FFFA"/>
<path d="M8.70741 13.6682C10.1392 12.5921 11.7307 12.0227 13.3103 12.0227C13.4627 12.0227 13.6135 12.0288 13.7629 12.0395C13.6801 11.8528 13.5913 11.6675 13.4922 11.4884C12.4643 9.64385 10.6465 8.58609 8.50626 8.58609C6.9266 8.58609 5.33511 9.15554 3.90335 10.2317C0.312141 12.9319 -1.04861 17.9284 0.871235 21.3711C1.82672 23.084 3.46259 24.1173 5.40462 24.2566C3.90631 20.8491 5.30404 16.2277 8.70889 13.6682H8.70741Z" fill="#E6FFFA"/>
<path d="M21.571 8.358L15.3278 9.02082V14.9434C15.3278 25.7506 6.00663 27.4314 2.03825 24.6791C2.02642 24.6714 2.01606 24.6653 2.00275 24.6653C1.97169 24.6653 1.94507 24.6913 1.94507 24.725C1.94507 24.7418 1.95098 24.7571 1.95986 24.7678C1.95986 24.7678 5.42979 28.0253 6.00959 28.4662H6.00811C9.13785 31.07 13.7792 30.0444 16.4489 27.6748L17.999 29.1458H21.5843L21.5681 8.358H21.571Z" fill="#E6FFFA"/>
<path d="M86.0383 9.09277L92.1676 8.37177V29.1351H86.0383V9.09277ZM85.7927 0.57251H92.4131V5.24901H85.7927V0.57251Z" fill="#E6FFFA"/>
<path d="M78.7021 10.2317C77.2703 9.15554 75.6788 8.58609 74.0992 8.58609C71.959 8.58609 70.1426 9.64385 69.1132 11.4884C69.0126 11.6675 68.9239 11.8528 68.8425 12.0395C68.9919 12.0288 69.1428 12.0227 69.2951 12.0227C70.8748 12.0227 72.4663 12.5921 73.898 13.6682C77.3029 16.2277 78.7006 20.8506 77.2023 24.2566C79.1443 24.1173 80.7802 23.084 81.7357 21.3711C83.6555 17.9284 82.2948 12.9319 78.7036 10.2317H78.7021Z" fill="#E6FFFA"/>
<path d="M80.5894 24.6622C80.5746 24.6622 80.5643 24.6668 80.551 24.6775C76.5811 27.4298 67.2614 25.7491 67.2614 14.9418V0L61.0182 0.662823L61.002 29.1458H64.5873L66.1373 27.6748C68.8071 30.0444 73.4484 31.0685 76.5782 28.4662H76.5767C77.1565 28.0238 80.6264 24.7663 80.6264 24.7663C80.6383 24.7556 80.6456 24.7388 80.6456 24.7219C80.6456 24.6898 80.6205 24.6622 80.588 24.6622H80.5894Z" fill="#E6FFFA"/>
</g>
<defs>
<clipPath id="clip0_34_1254">
<rect width="116" height="30" fill="white"/>
</clipPath>
</defs>
</svg>
