<svg width="220" height="55" viewBox="0 0 220 55" fill="none" xmlns="http://www.w3.org/2000/svg">
<path d="M95.8828 53.4144V32.2541C95.8828 26.2315 93.2909 23.1809 88.1771 23.1809C86.6454 23.1809 85.543 23.4026 84.2442 23.9695L83.9721 24.0874L84.0451 24.3765C84.1825 24.9321 84.3368 26.341 84.3368 27.4775V53.4172H72.2999V32.2541C72.2999 26.2315 69.6322 23.1809 64.3669 23.1809C63.0821 23.1809 62.0723 23.3465 60.9895 23.7338L60.7567 23.818V53.42H48.7197V16.7122L60.7567 15.3511V22.3923C63.5085 17.5934 67.8874 15.2332 73.3153 15.2332C78.7433 15.2332 82.3479 17.8909 83.7449 22.7179C85.8348 19.0246 89.7031 15.2332 96.8955 15.2332C104.088 15.2332 107.917 19.9508 107.917 27.8536V53.4144H95.88H95.8828Z" fill="#003444"/>
<path d="M212.597 18.758C209.882 16.7851 206.863 15.7411 203.867 15.7411C199.808 15.7411 196.364 17.6804 194.411 21.0621C194.221 21.3905 194.052 21.73 193.898 22.0724C194.181 22.0528 194.467 22.0415 194.756 22.0415C197.752 22.0415 200.771 23.0855 203.486 25.0584C209.943 29.7507 212.594 38.2261 209.753 44.4704C213.436 44.215 216.538 42.3206 218.351 39.1803C221.992 32.8687 219.411 23.7085 212.6 18.758H212.597Z" fill="#003444"/>
<path d="M216.168 45.2225C216.146 45.2225 216.123 45.2281 216.104 45.2421C213.944 46.578 211.388 47.2992 208.611 47.2992C205.007 47.2992 201.413 46.0756 198.224 43.7603C190.355 38.0465 187.472 27.3036 191.794 19.8076C192.145 19.1986 192.535 18.6261 192.958 18.0929C192.978 18.0677 192.986 18.0508 192.986 18.0256C192.986 17.9722 192.944 17.9301 192.891 17.9301C192.869 17.9301 192.846 17.9386 192.832 17.9498L188.148 22.1847C186.397 23.7703 184.495 25.4092 183.275 27.5084C178.935 34.9931 181.836 45.7473 189.704 51.4611C192.894 53.7764 196.487 55 200.092 55C205.792 54.9719 208.763 52.1936 211.624 49.5892L216.252 45.4049C216.269 45.3852 216.278 45.36 216.278 45.3319C216.278 45.273 216.23 45.2225 216.168 45.2225Z" fill="#003444"/>
<path d="M16.5141 25.0584C19.2295 23.0855 22.2478 22.0415 25.2437 22.0415C25.5327 22.0415 25.8188 22.0528 26.1021 22.0724C25.945 21.73 25.7767 21.3905 25.5888 21.0621C23.6392 17.6804 20.1916 15.7411 16.1326 15.7411C13.1367 15.7411 10.1183 16.7851 7.40294 18.758C0.592017 23.7085 -1.98873 32.8687 1.65237 39.1803C3.4645 42.3206 6.567 44.215 10.2502 44.4704C7.40855 38.2233 10.0594 29.7507 16.5169 25.0584H16.5141Z" fill="#003444"/>
<path d="M40.9106 15.323L29.07 16.5382V27.3962C29.07 47.2094 11.3919 50.2909 3.86569 45.2449C3.84325 45.2309 3.82361 45.2197 3.79837 45.2197C3.73946 45.2197 3.68896 45.2674 3.68896 45.3291C3.68896 45.36 3.70019 45.3881 3.71702 45.4077C3.71702 45.4077 10.2979 51.3797 11.3975 52.188H11.3947C17.3304 56.9617 26.133 55.0814 31.1963 50.7371L34.1361 53.434H40.9358L40.905 15.323H40.9106Z" fill="#003444"/>
<path d="M163.176 16.6701L174.801 15.3482V53.4144H163.176V16.6701ZM162.71 1.04959H175.266V9.62317H162.71V1.04959Z" fill="#003444"/>
<path d="M149.262 18.758C146.547 16.7851 143.528 15.7411 140.533 15.7411C136.473 15.7411 133.029 17.6804 131.076 21.0621C130.886 21.3905 130.717 21.73 130.563 22.0724C130.846 22.0528 131.132 22.0415 131.421 22.0415C134.417 22.0415 137.436 23.0855 140.151 25.0584C146.608 29.7507 149.259 38.2261 146.418 44.4704C150.101 44.215 153.203 42.3206 155.016 39.1803C158.657 32.8687 156.076 23.7085 149.265 18.758H149.262Z" fill="#003444"/>
<path d="M152.842 45.2141C152.813 45.2141 152.794 45.2225 152.769 45.2421C145.24 50.288 127.564 47.2066 127.564 27.3934V0L115.724 1.21517L115.693 53.434H122.493L125.432 50.7371C130.496 55.0814 139.298 56.9589 145.234 52.188H145.231C146.331 51.3769 152.912 45.4049 152.912 45.4049C152.934 45.3852 152.948 45.3544 152.948 45.3235C152.948 45.2646 152.9 45.2141 152.839 45.2141H152.842Z" fill="#003444"/>
</svg>
