<?xml version="1.0" encoding="UTF-8"?>
<!DOCTYPE svg PUBLIC "-//W3C//DTD SVG 1.1//EN" "http://www.w3.org/Graphics/SVG/1.1/DTD/svg11.dtd">
<svg xmlns="http://www.w3.org/2000/svg" version="1.1" width="420px" height="594px" style="shape-rendering:geometricPrecision; text-rendering:geometricPrecision; image-rendering:optimizeQuality; fill-rule:evenodd; clip-rule:evenodd" xmlns:xlink="http://www.w3.org/1999/xlink">
<g><path style="opacity:1" fill="#ed4f3a" d="M 183.5,180.5 C 183.427,182.027 184.094,183.027 185.5,183.5C 188.66,191.086 185.993,195.753 177.5,197.5C 175.201,197.401 173.201,196.734 171.5,195.5C 167.213,189.818 167.546,184.485 172.5,179.5C 173.793,178.842 175.293,178.508 177,178.5C 179.544,178.336 181.71,179.003 183.5,180.5 Z"/></g>
<g><path style="opacity:0.49" fill="#f7afa7" d="M 183.5,180.5 C 184.906,180.973 185.573,181.973 185.5,183.5C 184.094,183.027 183.427,182.027 183.5,180.5 Z"/></g>
<g><path style="opacity:0.049" fill="#ecdddb" d="M 172.5,179.5 C 167.546,184.485 167.213,189.818 171.5,195.5C 167.997,194.351 166.331,191.851 166.5,188C 166.447,183.576 168.447,180.742 172.5,179.5 Z"/></g>
<g><path style="opacity:0.353" fill="#fac8c2" d="M 166.5,203.5 C 164.097,203.448 161.764,203.781 159.5,204.5C 160.312,203.007 161.645,202.34 163.5,202.5C 164.726,202.52 165.726,202.853 166.5,203.5 Z"/></g>
<g><path style="opacity:1" fill="#eb432f" d="M 166.5,203.5 C 167.492,203.328 168.158,203.662 168.5,204.5C 168.427,206.027 169.094,207.027 170.5,207.5C 172.223,209.78 172.889,212.447 172.5,215.5C 172.362,220.414 173.028,225.081 174.5,229.5C 175.657,232.273 176.324,235.273 176.5,238.5C 176.12,240.698 176.787,242.365 178.5,243.5C 181.192,249.525 185.525,253.859 191.5,256.5C 193.473,257.163 195.639,257.496 198,257.5C 201.782,257.621 205.282,256.954 208.5,255.5C 213.915,254.806 218.915,253.14 223.5,250.5C 223.833,250.5 224.167,250.5 224.5,250.5C 227.428,250.435 230.095,249.768 232.5,248.5C 234.379,247.659 236.379,247.325 238.5,247.5C 247.5,247.5 256.5,247.5 265.5,247.5C 267.415,247.216 269.081,247.549 270.5,248.5C 272.905,249.768 275.572,250.435 278.5,250.5C 272.833,251.167 267.167,251.833 261.5,252.5C 252.938,252.696 244.938,254.696 237.5,258.5C 232.483,259.393 227.817,261.06 223.5,263.5C 222.791,264.404 221.791,264.737 220.5,264.5C 213.588,266.311 206.588,267.645 199.5,268.5C 193.42,268.483 187.42,267.817 181.5,266.5C 180.738,264.738 179.404,263.738 177.5,263.5C 176.833,262.167 175.833,261.167 174.5,260.5C 173.5,260.167 172.833,259.5 172.5,258.5C 172.573,256.973 171.906,255.973 170.5,255.5C 169.326,254.486 168.66,253.153 168.5,251.5C 168.598,249.447 167.931,247.78 166.5,246.5C 164.742,236.193 163.075,225.86 161.5,215.5C 160.702,215.957 160.369,216.624 160.5,217.5C 160.5,217.833 160.5,218.167 160.5,218.5C 159.833,218.5 159.5,218.833 159.5,219.5C 156.833,223.167 154.167,226.833 151.5,230.5C 150.094,230.973 149.427,231.973 149.5,233.5C 149.34,235.153 148.674,236.486 147.5,237.5C 146.662,237.842 146.328,238.508 146.5,239.5C 144.896,240.287 144.229,241.62 144.5,243.5C 143.662,243.842 143.328,244.508 143.5,245.5C 142.662,245.842 142.328,246.508 142.5,247.5C 139.531,252.399 137.531,257.733 136.5,263.5C 135.566,264.568 135.232,265.901 135.5,267.5C 133.375,273.46 131.375,279.46 129.5,285.5C 126.996,278.848 126.996,272.182 129.5,265.5C 131.277,262.495 132.277,259.162 132.5,255.5C 132.5,255.167 132.5,254.833 132.5,254.5C 134.213,253.365 134.88,251.698 134.5,249.5C 136.213,248.365 136.88,246.698 136.5,244.5C 136.263,243.209 136.596,242.209 137.5,241.5C 139.834,239.824 140.834,237.491 140.5,234.5C 142.384,228.402 145.051,222.735 148.5,217.5C 149.906,217.027 150.573,216.027 150.5,214.5C 152.262,213.738 153.262,212.404 153.5,210.5C 155.833,208.833 157.833,206.833 159.5,204.5C 161.764,203.781 164.097,203.448 166.5,203.5 Z"/></g>
<g><path style="opacity:0.518" fill="#f8a89f" d="M 168.5,204.5 C 169.906,204.973 170.573,205.973 170.5,207.5C 169.094,207.027 168.427,206.027 168.5,204.5 Z"/></g>
<g><path style="opacity:0.557" fill="#f9b5ad" d="M 159.5,204.5 C 157.833,206.833 155.833,208.833 153.5,210.5C 154.5,207.5 156.5,205.5 159.5,204.5 Z"/></g>
<g><path style="opacity:0.596" fill="#f8a9a0" d="M 153.5,210.5 C 153.262,212.404 152.262,213.738 150.5,214.5C 150.738,212.596 151.738,211.262 153.5,210.5 Z"/></g>
<g><path style="opacity:1" fill="#4da7a8" d="M 201.5,236.5 C 200.448,238.256 198.781,238.923 196.5,238.5C 194.095,229.556 196.762,222.389 204.5,217C 203.139,215.416 202.472,213.582 202.5,211.5C 204.5,211.167 206.5,210.833 208.5,210.5C 208.491,212.308 208.991,213.975 210,215.5C 212.403,217.305 214.07,219.638 215,222.5C 215.919,227.869 217.419,233.036 219.5,238C 217.317,239.694 214.984,239.861 212.5,238.5C 211.362,232.659 209.695,226.992 207.5,221.5C 203.164,225.497 201.164,230.497 201.5,236.5 Z"/></g>
<g><path style="opacity:0.847" fill="#8ecaca" d="M 244.5,213.5 C 242.585,213.216 240.919,213.549 239.5,214.5C 237.818,215.827 236.485,217.494 235.5,219.5C 235.5,217.833 235.5,216.167 235.5,214.5C 233.833,214.5 232.167,214.5 230.5,214.5C 230.737,215.791 230.404,216.791 229.5,217.5C 229.5,216.167 229.5,214.833 229.5,213.5C 234.645,212.309 239.645,212.309 244.5,213.5 Z"/></g>
<g><path style="opacity:0.999" fill="#47a4a5" d="M 235.5,219.5 C 233.881,221.238 231.881,221.738 229.5,221C 228.209,219.708 228.209,218.542 229.5,217.5C 230.404,216.791 230.737,215.791 230.5,214.5C 232.167,214.5 233.833,214.5 235.5,214.5C 235.5,216.167 235.5,217.833 235.5,219.5 Z"/></g>
<g><path style="opacity:1" fill="#4ba6a8" d="M 244.5,213.5 C 246.173,214.343 247.34,215.676 248,217.5C 249.409,223.354 248.243,228.521 244.5,233C 242.323,234.202 239.989,234.702 237.5,234.5C 234.833,234.5 232.167,234.5 229.5,234.5C 229.5,235.833 229.5,237.167 229.5,238.5C 227.89,242.305 225.223,243.305 221.5,241.5C 221.779,238.882 222.446,236.382 223.5,234C 228.229,233.727 232.896,233.061 237.5,232C 238.931,231.535 240.097,230.701 241,229.5C 243.431,224.051 242.931,219.051 239.5,214.5C 240.919,213.549 242.585,213.216 244.5,213.5 Z"/></g>
<g><path style="opacity:0.22" fill="#fad0cc" d="M 150.5,214.5 C 150.573,216.027 149.906,217.027 148.5,217.5C 148.427,215.973 149.094,214.973 150.5,214.5 Z"/></g>
<g><path style="opacity:0.902" fill="#70b8b9" d="M 277.5,218.5 C 275.801,218.34 274.134,218.506 272.5,219C 273.252,219.671 273.586,220.504 273.5,221.5C 270.214,218.733 267.214,219.066 264.5,222.5C 264.179,220.952 263.179,220.285 261.5,220.5C 265.211,218.775 265.211,216.775 261.5,214.5C 258.997,216.495 256.164,217.829 253,218.5C 252.5,218.167 252,217.833 251.5,217.5C 252.427,215.509 252.594,213.509 252,211.5C 255.332,210.138 258.499,210.471 261.5,212.5C 266.33,212.064 270.83,210.73 275,208.5C 277.241,208.68 277.741,209.513 276.5,211C 277.5,212 278.5,213 279.5,214C 276.7,215.232 273.7,215.899 270.5,216C 273.004,216.698 275.337,217.531 277.5,218.5 Z"/></g>
<g><path style="opacity:1" fill="#3fa0a2" d="M 277.5,218.5 C 278.338,218.842 278.672,219.508 278.5,220.5C 276.94,226.3 276.274,232.3 276.5,238.5C 275.5,238.5 274.5,238.5 273.5,238.5C 272.501,232.995 272.501,227.328 273.5,221.5C 273.586,220.504 273.252,219.671 272.5,219C 274.134,218.506 275.801,218.34 277.5,218.5 Z"/></g>
<g><path style="opacity:0.999" fill="#4aa5a6" d="M 261.5,220.5 C 263.179,220.285 264.179,220.952 264.5,222.5C 264.167,223.167 263.833,223.833 263.5,224.5C 262.357,227.976 262.19,231.642 263,235.5C 263.383,236.056 263.883,236.389 264.5,236.5C 265.043,236.56 265.376,236.893 265.5,237.5C 261.857,240.632 259.357,239.966 258,235.5C 257.333,231.5 257.333,227.5 258,223.5C 259.039,222.29 260.206,221.29 261.5,220.5 Z"/></g>
<g><path style="opacity:0.694" fill="#f8ada5" d="M 172.5,215.5 C 173.801,219.943 174.468,224.609 174.5,229.5C 173.028,225.081 172.362,220.414 172.5,215.5 Z"/></g>
<g><path style="opacity:0.008" fill="#e5e6e5" d="M 157.5,223.5 C 158.833,224.167 158.833,224.167 157.5,223.5 Z"/></g>
<g><path style="opacity:1" fill="#6fb8b9" d="M 278.5,220.5 C 278.941,226.044 279.274,231.711 279.5,237.5C 277.605,239.486 275.605,239.819 273.5,238.5C 274.5,238.5 275.5,238.5 276.5,238.5C 276.274,232.3 276.94,226.3 278.5,220.5 Z"/></g>
<g><path style="opacity:0.153" fill="#e9c7c4" d="M 151.5,230.5 C 151.573,232.027 150.906,233.027 149.5,233.5C 149.427,231.973 150.094,230.973 151.5,230.5 Z"/></g>
<g><path style="opacity:0.78" fill="#8bc8c8" d="M 263.5,224.5 C 263.646,228.519 263.979,232.519 264.5,236.5C 263.883,236.389 263.383,236.056 263,235.5C 262.19,231.642 262.357,227.976 263.5,224.5 Z"/></g>
<g><path style="opacity:0.098" fill="#e3f2f2" d="M 237.5,234.5 C 235.393,235.468 233.059,235.802 230.5,235.5C 230.737,236.791 230.404,237.791 229.5,238.5C 229.5,237.167 229.5,235.833 229.5,234.5C 232.167,234.5 234.833,234.5 237.5,234.5 Z"/></g>
<g><path style="opacity:0.945" fill="#f99788" d="M 140.5,234.5 C 140.834,237.491 139.834,239.824 137.5,241.5C 137.935,238.843 138.935,236.509 140.5,234.5 Z"/></g>
<g><path style="opacity:0.153" fill="#d2eaea" d="M 201.5,236.5 C 202.404,237.209 202.737,238.209 202.5,239.5C 200.265,239.795 198.265,239.461 196.5,238.5C 198.781,238.923 200.448,238.256 201.5,236.5 Z"/></g>
<g><path style="opacity:0.114" fill="#e9c9c5" d="M 166.5,246.5 C 164.047,237.582 161.714,228.582 159.5,219.5C 160.167,219.5 160.5,219.167 160.5,218.5C 161.833,218.167 161.833,217.833 160.5,217.5C 160.369,216.624 160.702,215.957 161.5,215.5C 163.075,225.86 164.742,236.193 166.5,246.5 Z"/></g>
<g><path style="opacity:0.89" fill="#f7988a" d="M 176.5,238.5 C 177.537,239.93 178.204,241.597 178.5,243.5C 176.787,242.365 176.12,240.698 176.5,238.5 Z"/></g>
<g><path style="opacity:0.796" fill="#f8a296" d="M 265.5,247.5 C 256.5,247.5 247.5,247.5 238.5,247.5C 247.496,244.899 256.496,244.899 265.5,247.5 Z"/></g>
<g><path style="opacity:0.882" fill="#f69486" d="M 136.5,244.5 C 136.88,246.698 136.213,248.365 134.5,249.5C 134.796,247.597 135.463,245.93 136.5,244.5 Z"/></g>
<g><path style="opacity:0.161" fill="#f9bdb6" d="M 270.5,248.5 C 273.495,248.294 276.162,248.96 278.5,250.5C 275.572,250.435 272.905,249.768 270.5,248.5 Z"/></g>
<g><path style="opacity:0.31" fill="#e8bbb6" d="M 166.5,246.5 C 167.931,247.78 168.598,249.447 168.5,251.5C 167.069,250.22 166.402,248.553 166.5,246.5 Z"/></g>
<g><path style="opacity:0.69" fill="#f6a198" d="M 232.5,248.5 C 230.095,249.768 227.428,250.435 224.5,250.5C 226.838,248.96 229.505,248.294 232.5,248.5 Z"/></g>
<g><path style="opacity:0.533" fill="#e9887e" d="M 278.5,250.5 C 280.099,250.232 281.432,250.566 282.5,251.5C 281.081,252.451 279.415,252.784 277.5,252.5C 274.167,252.5 270.833,252.5 267.5,252.5C 265.5,252.5 263.5,252.5 261.5,252.5C 267.167,251.833 272.833,251.167 278.5,250.5 Z"/></g>
<g><path style="opacity:0.82" fill="#f9a89c" d="M 134.5,249.5 C 134.88,251.698 134.213,253.365 132.5,254.5C 132.796,252.597 133.463,250.93 134.5,249.5 Z"/></g>
<g><path style="opacity:0.035" fill="#e8dcda" d="M 147.5,237.5 C 148.473,239.068 148.64,240.735 148,242.5C 144.545,248.957 141.545,255.624 139,262.5C 137.913,260.068 137.413,260.402 137.5,263.5C 137.167,263.5 136.833,263.5 136.5,263.5C 137.531,257.733 139.531,252.399 142.5,247.5C 142.328,246.508 142.662,245.842 143.5,245.5C 143.328,244.508 143.662,243.842 144.5,243.5C 144.229,241.62 144.896,240.287 146.5,239.5C 146.328,238.508 146.662,237.842 147.5,237.5 Z"/></g>
<g><path style="opacity:0.173" fill="#e9ceca" d="M 261.5,252.5 C 263.5,252.5 265.5,252.5 267.5,252.5C 262.051,253.851 256.384,254.685 250.5,255C 248.871,255.585 247.371,256.419 246,257.5C 245.228,257.355 244.561,257.022 244,256.5C 242.47,257.636 241.137,258.636 240,259.5C 239.329,258.748 238.496,258.414 237.5,258.5C 244.938,254.696 252.938,252.696 261.5,252.5 Z"/></g>
<g><path style="opacity:0.169" fill="#f9e3e1" d="M 282.5,251.5 C 283.675,251.281 284.675,251.614 285.5,252.5C 282.691,253.8 280.024,253.8 277.5,252.5C 279.415,252.784 281.081,252.451 282.5,251.5 Z"/></g>
<g><path style="opacity:0.827" fill="#f69285" d="M 223.5,250.5 C 218.915,253.14 213.915,254.806 208.5,255.5C 213.216,253.261 218.216,251.595 223.5,250.5 Z"/></g>
<g><path style="opacity:0.02" fill="#eacac6" d="M 170.5,255.5 C 171.906,255.973 172.573,256.973 172.5,258.5C 171.094,258.027 170.427,257.027 170.5,255.5 Z"/></g>
<g><path style="opacity:0.212" fill="#f7b5ae" d="M 208.5,255.5 C 205.282,256.954 201.782,257.621 198,257.5C 195.639,257.496 193.473,257.163 191.5,256.5C 197.196,256.553 202.862,256.22 208.5,255.5 Z"/></g>
<g><path style="opacity:0.875" fill="#f79e93" d="M 132.5,255.5 C 132.277,259.162 131.277,262.495 129.5,265.5C 129.723,261.838 130.723,258.505 132.5,255.5 Z"/></g>
<g><path style="opacity:0.016" fill="#e9c7c4" d="M 174.5,260.5 C 175.833,261.167 176.833,262.167 177.5,263.5C 175.5,263.5 174.5,262.5 174.5,260.5 Z"/></g>
<g><path style="opacity:0.006" fill="#e9cfcc" d="M 237.5,258.5 C 235.987,262.164 233.487,263.164 230,261.5C 227.993,262.669 225.827,263.335 223.5,263.5C 227.817,261.06 232.483,259.393 237.5,258.5 Z"/></g>
<g><path style="opacity:0.561" fill="#eaa9a1" d="M 177.5,263.5 C 179.404,263.738 180.738,264.738 181.5,266.5C 179.596,266.262 178.262,265.262 177.5,263.5 Z"/></g>
<g><path style="opacity:0.592" fill="#e98b80" d="M 181.5,266.5 C 187.42,267.817 193.42,268.483 199.5,268.5C 199.5,268.833 199.5,269.167 199.5,269.5C 198.5,269.5 197.5,269.5 196.5,269.5C 195.833,269.5 195.167,269.5 194.5,269.5C 189.727,269.876 185.393,268.876 181.5,266.5 Z"/></g>
<g><path style="opacity:0.025" fill="#e8dcdb" d="M 220.5,264.5 C 215.691,266.168 211.024,268.335 206.5,271C 201.5,271.667 196.5,271.667 191.5,271C 192.737,270.768 193.737,270.268 194.5,269.5C 195.167,269.5 195.833,269.5 196.5,269.5C 200.908,270.627 201.908,270.627 199.5,269.5C 199.5,269.167 199.5,268.833 199.5,268.5C 206.588,267.645 213.588,266.311 220.5,264.5 Z"/></g>
<g><path style="opacity:0.027" fill="#eadad8" d="M 136.5,263.5 C 136.833,266.167 137.167,266.167 137.5,263.5C 138.097,263.735 138.43,264.235 138.5,265C 136.115,272.658 133.448,280.158 130.5,287.5C 129.702,287.043 129.369,286.376 129.5,285.5C 131.375,279.46 133.375,273.46 135.5,267.5C 135.232,265.901 135.566,264.568 136.5,263.5 Z"/></g>
<g><path style="opacity:0.98" fill="#2b5d5d" d="M 276.5,275.5 C 279.167,276.167 279.167,276.833 276.5,277.5C 276.5,276.833 276.5,276.167 276.5,275.5 Z"/></g>
<g><path style="opacity:0.306" fill="#c3d2d2" d="M 276.5,275.5 C 277.209,274.596 278.209,274.263 279.5,274.5C 279.5,275.833 279.5,277.167 279.5,278.5C 278.209,278.737 277.209,278.404 276.5,277.5C 279.167,276.833 279.167,276.167 276.5,275.5 Z"/></g>
<g><path style="opacity:0.411" fill="#a9bfbf" d="M 144.5,276.5 C 142.558,281.056 141.892,286.056 142.5,291.5C 145.518,291.665 148.518,291.498 151.5,291C 148.639,291.03 146.305,290.197 144.5,288.5C 147.516,288.66 150.183,288.993 152.5,289.5C 152.5,290.5 152.5,291.5 152.5,292.5C 148.833,292.5 145.167,292.5 141.5,292.5C 141.5,286.833 141.5,281.167 141.5,275.5C 142.791,275.263 143.791,275.596 144.5,276.5 Z"/></g>
<g><path style="opacity:0.999" fill="#205858" d="M 144.5,276.5 C 144.5,280.5 144.5,284.5 144.5,288.5C 146.305,290.197 148.639,291.03 151.5,291C 148.518,291.498 145.518,291.665 142.5,291.5C 141.892,286.056 142.558,281.056 144.5,276.5 Z"/></g>
<g><path style="opacity:0.999" fill="#225756" d="M 233.5,284.5 C 231.5,284.5 229.5,284.5 227.5,284.5C 227.5,286.833 227.5,289.167 227.5,291.5C 226.833,292.833 226.167,292.833 225.5,291.5C 225.5,286.5 225.5,281.5 225.5,276.5C 228.518,276.335 231.518,276.502 234.5,277C 232.19,277.497 229.857,277.663 227.5,277.5C 227.5,279.167 227.5,280.833 227.5,282.5C 230.082,282.025 232.082,282.692 233.5,284.5 Z"/></g>
<g><path style="opacity:0.36" fill="#c3d2d2" d="M 233.5,284.5 C 232.082,282.692 230.082,282.025 227.5,282.5C 227.5,280.833 227.5,279.167 227.5,277.5C 229.857,277.663 232.19,277.497 234.5,277C 231.518,276.502 228.518,276.335 225.5,276.5C 225.5,281.5 225.5,286.5 225.5,291.5C 224.512,286.36 224.179,281.026 224.5,275.5C 228.167,275.5 231.833,275.5 235.5,275.5C 235.5,276.5 235.5,277.5 235.5,278.5C 233.167,278.5 230.833,278.5 228.5,278.5C 228.5,279.5 228.5,280.5 228.5,281.5C 230.5,281.5 232.5,281.5 234.5,281.5C 234.737,282.791 234.404,283.791 233.5,284.5 Z"/></g>
<g><path style="opacity:0.896" fill="#95aeae" d="M 204.5,275.5 C 205.209,274.596 206.209,274.263 207.5,274.5C 207.215,276.288 207.548,277.955 208.5,279.5C 211.035,278.497 213.202,279.163 215,281.5C 215.808,285.027 215.641,288.36 214.5,291.5C 214.905,287.952 214.405,284.619 213,281.5C 212.536,282.094 212.369,282.761 212.5,283.5C 210.958,282.699 209.292,282.366 207.5,282.5C 206.935,280.048 206.268,277.715 205.5,275.5C 205.167,275.5 204.833,275.5 204.5,275.5 Z"/></g>
<g><path style="opacity:0.91" fill="#8da8a8" d="M 265.5,291.5 C 266.552,291.649 267.552,291.483 268.5,291C 267.058,290.623 266.058,289.79 265.5,288.5C 266.496,288.414 267.329,288.748 268,289.5C 268.708,288.619 269.542,287.953 270.5,287.5C 270.709,288.922 271.209,290.255 272,291.5C 272.667,286.167 272.667,280.833 272,275.5C 271.605,278.207 271.105,280.873 270.5,283.5C 268.958,282.699 267.292,282.366 265.5,282.5C 266.504,280.323 265.838,279.989 263.5,281.5C 264.87,279.043 266.87,278.377 269.5,279.5C 270.452,277.955 270.785,276.288 270.5,274.5C 271.5,274.5 272.5,274.5 273.5,274.5C 273.5,280.5 273.5,286.5 273.5,292.5C 270.79,292.192 268.123,291.859 265.5,291.5 Z"/></g>
<g><path style="opacity:0.89" fill="#7e9d9c" d="M 162.5,281.5 C 160.162,279.989 159.496,280.323 160.5,282.5C 158.833,282.5 157.167,282.5 155.5,282.5C 155.158,281.662 154.492,281.328 153.5,281.5C 156.568,277.604 159.568,277.604 162.5,281.5 Z"/></g>
<g><path style="opacity:1" fill="#6e9090" d="M 174.5,279.5 C 174.443,280.609 174.11,281.609 173.5,282.5C 167.961,282.965 167.127,285.299 171,289.5C 171.671,288.748 172.504,288.414 173.5,288.5C 172.472,289.787 172.805,290.954 174.5,292C 174.164,293.03 173.497,293.53 172.5,293.5C 171.432,292.566 170.099,292.232 168.5,292.5C 165.645,289.408 164.812,285.741 166,281.5C 168.553,279.026 171.386,278.359 174.5,279.5 Z"/></g>
<g><path style="opacity:0.556" fill="#92adad" d="M 251.5,279.5 C 250.355,283.311 250.188,287.311 251,291.5C 251.183,288.635 251.683,285.969 252.5,283.5C 252.5,286.5 252.5,289.5 252.5,292.5C 251.5,292.5 250.5,292.5 249.5,292.5C 249.173,287.786 249.507,283.12 250.5,278.5C 251.107,278.624 251.44,278.957 251.5,279.5 Z"/></g>
<g><path style="opacity:0.788" fill="#82a0a0" d="M 259.5,281.5 C 256.543,279.975 255.876,280.642 257.5,283.5C 255.833,282.167 254.167,282.167 252.5,283.5C 252.167,282.167 251.833,280.833 251.5,279.5C 253.144,279.714 254.644,279.38 256,278.5C 257.729,278.974 258.895,279.974 259.5,281.5 Z"/></g>
<g><path style="opacity:1" fill="#275b5b" d="M 270.5,287.5 C 270.5,286.167 270.5,284.833 270.5,283.5C 271.105,280.873 271.605,278.207 272,275.5C 272.667,280.833 272.667,286.167 272,291.5C 271.209,290.255 270.709,288.922 270.5,287.5 Z"/></g>
<g><path style="opacity:0.999" fill="#2b5d5c" d="M 278.5,279.5 C 279.089,283.971 278.423,287.971 276.5,291.5C 275.911,287.029 276.577,283.029 278.5,279.5 Z"/></g>
<g><path style="opacity:0.314" fill="#bbcccc" d="M 278.5,279.5 C 279.485,283.634 279.818,287.968 279.5,292.5C 278.209,292.737 277.209,292.404 276.5,291.5C 278.423,287.971 279.089,283.971 278.5,279.5 Z"/></g>
<g><path style="opacity:0.925" fill="#6a8d8c" d="M 292.5,291.5 C 290.89,288.797 289.89,285.797 289.5,282.5C 288.167,282.5 286.833,282.5 285.5,282.5C 285.665,285.518 285.498,288.518 285,291.5C 284,292.833 283,292.833 282,291.5C 281.333,287.5 281.333,283.5 282,279.5C 282.414,279.043 282.914,278.709 283.5,278.5C 285.042,279.747 286.542,279.747 288,278.5C 289.333,279.167 290.667,279.833 292,280.5C 292.499,284.152 292.665,287.818 292.5,291.5 Z"/></g>
<g><path style="opacity:0.718" fill="#87a4a3" d="M 303.5,279.5 C 303.81,282.713 303.477,285.713 302.5,288.5C 302.5,286.5 302.5,284.5 302.5,282.5C 300.708,282.366 299.042,282.699 297.5,283.5C 297.607,281.621 297.107,281.288 296,282.5C 295.503,284.81 295.337,287.143 295.5,289.5C 292.706,281.635 295.373,278.302 303.5,279.5 Z"/></g>
<g><path style="opacity:0.029" fill="#dfe6e6" d="M 181.5,279.5 C 181.389,280.117 181.056,280.617 180.5,281C 182.708,281.191 184.708,281.691 186.5,282.5C 184.167,282.5 181.833,282.5 179.5,282.5C 179.285,280.821 179.952,279.821 181.5,279.5 Z"/></g>
<g><path style="opacity:0.178" fill="#cad7d7" d="M 200.5,279.5 C 201.404,280.209 201.737,281.209 201.5,282.5C 199.265,282.205 197.265,282.539 195.5,283.5C 194.957,283.44 194.624,283.107 194.5,282.5C 196.975,282.036 198.975,281.036 200.5,279.5 Z"/></g>
<g><path style="opacity:0.999" fill="#114e4e" d="M 251.5,279.5 C 251.833,280.833 252.167,282.167 252.5,283.5C 251.683,285.969 251.183,288.635 251,291.5C 250.188,287.311 250.355,283.311 251.5,279.5 Z"/></g>
<g><path style="opacity:1" fill="#658988" d="M 200.5,279.5 C 198.975,281.036 196.975,282.036 194.5,282.5C 194.624,283.107 194.957,283.44 195.5,283.5C 198.843,283.501 201.177,285.001 202.5,288C 200.772,292.317 197.772,293.484 193.5,291.5C 192.34,289.797 193.007,289.131 195.5,289.5C 196.756,289.539 197.756,289.039 198.5,288C 195.054,287.482 192.721,285.648 191.5,282.5C 193.825,279.28 196.825,278.28 200.5,279.5 Z"/></g>
<g><path style="opacity:1" fill="#2c5f5f" d="M 297.5,283.5 C 297.5,284.833 297.5,286.167 297.5,287.5C 297.5,288.833 296.833,289.5 295.5,289.5C 295.337,287.143 295.503,284.81 296,282.5C 297.107,281.288 297.607,281.621 297.5,283.5 Z"/></g>
<g><path style="opacity:0.912" fill="#537b7b" d="M 303.5,295.5 C 301.473,295.662 299.473,295.495 297.5,295C 299.058,294.79 300.391,294.29 301.5,293.5C 301.5,293.167 301.5,292.833 301.5,292.5C 302.833,292.167 302.833,291.833 301.5,291.5C 300.448,291.649 299.448,291.483 298.5,291C 300.32,290.8 301.653,289.966 302.5,288.5C 303.477,285.713 303.81,282.713 303.5,279.5C 304.189,278.226 305.023,278.226 306,279.5C 306.667,283.833 306.667,288.167 306,292.5C 305.623,293.942 304.79,294.942 303.5,295.5 Z"/></g>
<g><path style="opacity:1" fill="#386666" d="M 162.5,281.5 C 163.404,282.209 163.737,283.209 163.5,284.5C 160.713,285.477 157.713,285.81 154.5,285.5C 154.263,286.791 154.596,287.791 155.5,288.5C 155.158,289.338 154.492,289.672 153.5,289.5C 153.167,289.5 152.833,289.5 152.5,289.5C 150.924,286.504 151.257,283.838 153.5,281.5C 154.492,281.328 155.158,281.662 155.5,282.5C 154.957,282.56 154.624,282.893 154.5,283.5C 156.833,284.833 159.167,284.833 161.5,283.5C 161.376,282.893 161.043,282.56 160.5,282.5C 159.496,280.323 160.162,279.989 162.5,281.5 Z"/></g>
<g><path style="opacity:0.104" fill="#d0dbdb" d="M 155.5,282.5 C 157.167,283.833 158.833,283.833 160.5,282.5C 161.043,282.56 161.376,282.893 161.5,283.5C 159.167,284.833 156.833,284.833 154.5,283.5C 154.624,282.893 154.957,282.56 155.5,282.5 Z"/></g>
<g><path style="opacity:0.967" fill="#567d7c" d="M 176.5,292.5 C 174.228,295.552 171.228,296.218 167.5,294.5C 167.624,293.893 167.957,293.56 168.5,293.5C 169.833,293.5 171.167,293.5 172.5,293.5C 173.497,293.53 174.164,293.03 174.5,292C 172.805,290.954 172.472,289.787 173.5,288.5C 173.5,286.5 173.5,284.5 173.5,282.5C 174.11,281.609 174.443,280.609 174.5,279.5C 175.189,278.226 176.023,278.226 177,279.5C 177.768,283.92 177.602,288.253 176.5,292.5 Z"/></g>
<g><path style="opacity:0.808" fill="#4f7979" d="M 187.5,291.5 C 187.443,290.391 187.11,289.391 186.5,288.5C 187.404,287.791 187.737,286.791 187.5,285.5C 185.585,285.216 183.919,285.549 182.5,286.5C 181.065,288.665 181.731,290.165 184.5,291C 183.552,291.483 182.552,291.649 181.5,291.5C 178.872,290.375 178.039,288.375 179,285.5C 181.378,284.033 183.878,283.033 186.5,282.5C 184.708,281.691 182.708,281.191 180.5,281C 181.056,280.617 181.389,280.117 181.5,279.5C 187.694,277.689 190.36,280.023 189.5,286.5C 189.167,288.5 188.833,290.5 188.5,292.5C 187.893,292.376 187.56,292.043 187.5,291.5 Z M 182.5,286.5 C 184.483,286.157 185.817,286.824 186.5,288.5C 184.128,290.148 182.794,289.481 182.5,286.5 Z"/></g>
<g><path style="opacity:0.71" fill="#8ea9a9" d="M 204.5,275.5 C 204.833,275.5 205.167,275.5 205.5,275.5C 205.5,280.833 205.5,286.167 205.5,291.5C 205.167,291.5 204.833,291.5 204.5,291.5C 203.707,286.069 203.707,280.736 204.5,275.5 Z"/></g>
<g><path style="opacity:0.984" fill="#0d4a4a" d="M 205.5,275.5 C 206.268,277.715 206.935,280.048 207.5,282.5C 206.833,285.5 206.167,288.5 205.5,291.5C 205.5,286.167 205.5,280.833 205.5,275.5 Z"/></g>
<g><path style="opacity:0.27" fill="#c0cfcf" d="M 207.5,282.5 C 207.5,285.833 207.5,289.167 207.5,292.5C 206.209,292.737 205.209,292.404 204.5,291.5C 204.833,291.5 205.167,291.5 205.5,291.5C 206.167,288.5 206.833,285.5 207.5,282.5 Z"/></g>
<g><path style="opacity:0.948" fill="#2b5e5e" d="M 214.5,291.5 C 214.44,292.043 214.107,292.376 213.5,292.5C 212.516,289.572 212.183,286.572 212.5,283.5C 212.369,282.761 212.536,282.094 213,281.5C 214.405,284.619 214.905,287.952 214.5,291.5 Z"/></g>
<g><path style="opacity:0.005" fill="#fafbfb" d="M 233.5,284.5 C 232.081,285.451 230.415,285.784 228.5,285.5C 228.795,287.735 228.461,289.735 227.5,291.5C 227.5,289.167 227.5,286.833 227.5,284.5C 229.5,284.5 231.5,284.5 233.5,284.5 Z"/></g>
<g><path style="opacity:0.659" fill="#406e6e" d="M 259.5,281.5 C 260.069,285.329 259.402,288.663 257.5,291.5C 257.5,288.833 257.5,286.167 257.5,283.5C 255.876,280.642 256.543,279.975 259.5,281.5 Z"/></g>
<g><path style="opacity:0.337" fill="#bdcdcd" d="M 259.5,281.5 C 260.482,284.962 260.815,288.629 260.5,292.5C 259.209,292.737 258.209,292.404 257.5,291.5C 259.402,288.663 260.069,285.329 259.5,281.5 Z"/></g>
<g><path style="opacity:0.422" fill="#a5bcbc" d="M 163.5,284.5 C 164.043,284.56 164.376,284.893 164.5,285.5C 161.061,285.906 158.061,286.906 155.5,288.5C 154.596,287.791 154.263,286.791 154.5,285.5C 157.713,285.81 160.713,285.477 163.5,284.5 Z"/></g>
<g><path style="opacity:0.008" fill="#dee6e6" d="M 182.5,286.5 C 183.919,285.549 185.585,285.216 187.5,285.5C 187.737,286.791 187.404,287.791 186.5,288.5C 185.817,286.824 184.483,286.157 182.5,286.5 Z"/></g>
<g><path style="opacity:0.173" fill="#d6e0e0" d="M 289.5,282.5 C 289.89,285.797 290.89,288.797 292.5,291.5C 291.791,292.404 290.791,292.737 289.5,292.5C 289.5,289.167 289.5,285.833 289.5,282.5 Z"/></g>
<g><path style="opacity:1" fill="#5c8181" d="M 265.5,282.5 C 265.5,284.5 265.5,286.5 265.5,288.5C 266.058,289.79 267.058,290.623 268.5,291C 267.552,291.483 266.552,291.649 265.5,291.5C 261.329,288.822 260.662,285.489 263.5,281.5C 265.838,279.989 266.504,280.323 265.5,282.5 Z"/></g>
<g><path style="opacity:0.816" fill="#7c9b9b" d="M 155.5,288.5 C 158.078,289.254 160.744,289.254 163.5,288.5C 163.412,291.309 161.912,292.642 159,292.5C 156.601,292.387 154.768,291.387 153.5,289.5C 154.492,289.672 155.158,289.338 155.5,288.5 Z"/></g>
<g><path style="opacity:0.071" fill="#dfe7e7" d="M 195.5,289.5 C 193.007,289.131 192.34,289.797 193.5,291.5C 191.952,291.179 191.285,290.179 191.5,288.5C 193.099,288.232 194.432,288.566 195.5,289.5 Z"/></g>
<g><path style="opacity:0.763" fill="#7a9999" d="M 238.5,279.5 C 237.931,283.329 238.598,286.663 240.5,289.5C 241.15,289.196 241.817,288.863 242.5,288.5C 243.321,285.553 243.821,282.553 244,279.5C 245,278.167 246,278.167 247,279.5C 247.667,283.5 247.667,287.5 247,291.5C 237.178,294.003 233.511,290.003 236,279.5C 236.977,278.226 237.811,278.226 238.5,279.5 Z"/></g>
<g><path style="opacity:0.063" fill="#e5ebeb" d="M 238.5,279.5 C 239.237,282.725 239.903,286.059 240.5,289.5C 238.598,286.663 237.931,283.329 238.5,279.5 Z"/></g>
<g><path style="opacity:0.8" fill="#88a5a4" d="M 297.5,287.5 C 298.458,287.953 299.292,288.619 300,289.5C 300.671,288.748 301.504,288.414 302.5,288.5C 301.653,289.966 300.32,290.8 298.5,291C 299.448,291.483 300.448,291.649 301.5,291.5C 301.5,291.833 301.5,292.167 301.5,292.5C 300.167,292.5 298.833,292.5 297.5,292.5C 296.833,291.5 296.167,290.5 295.5,289.5C 296.833,289.5 297.5,288.833 297.5,287.5 Z"/></g>
<g><path style="opacity:0.776" fill="#9cb4b4" d="M 182.5,286.5 C 182.794,289.481 184.128,290.148 186.5,288.5C 187.11,289.391 187.443,290.391 187.5,291.5C 185.347,292.573 183.347,292.573 181.5,291.5C 182.552,291.649 183.552,291.483 184.5,291C 181.731,290.165 181.065,288.665 182.5,286.5 Z"/></g>
<g><path style="opacity:0.033" fill="#e5e7e7" d="M 168.5,292.5 C 168.5,292.833 168.5,293.167 168.5,293.5C 167.957,293.56 167.624,293.893 167.5,294.5C 171.228,296.218 174.228,295.552 176.5,292.5C 178.658,294.22 181.325,295.053 184.5,295C 180.235,296.015 175.902,296.515 171.5,296.5C 163.827,296.095 156.161,295.595 148.5,295C 155.367,294.998 162.033,294.164 168.5,292.5 Z"/></g>
<g><path style="opacity:0.007" fill="#ebeceb" d="M 212.5,295.5 C 213.251,294.427 214.251,294.26 215.5,295C 214.552,295.483 213.552,295.649 212.5,295.5 Z"/></g>
<g><path style="opacity:0.698" fill="#a4baba" d="M 297.5,292.5 C 298.568,293.434 299.901,293.768 301.5,293.5C 300.391,294.29 299.058,294.79 297.5,295C 299.473,295.495 301.473,295.662 303.5,295.5C 301.372,296.629 299.039,296.796 296.5,296C 295.015,294.244 295.348,293.077 297.5,292.5 Z"/></g>
</svg>
