<svg width="14" height="19" viewBox="0 0 14 19" fill="none" xmlns="http://www.w3.org/2000/svg">
<path d="M12.903 5.03591C12.829 5.35181 9.66764 7.14188 8.09619 7.99744C7.57852 8.28201 7.10091 8.11601 6.8236 7.99744M12.903 5.03591C12.9954 4.64104 13.1803 4.34489 12.5332 3.8513C12.0353 3.47146 9.55859 1.96502 8.2463 1.17723C8.1466 1.11738 8.03813 1.07502 7.92315 1.05763C7.5413 0.999861 6.93306 0.952274 6.61718 1.08721C6.26795 1.23639 3.19751 3.09986 1.45581 4.16574C1.26573 4.28207 1.11575 4.45705 1.06418 4.67385C0.981398 5.02183 0.946272 5.45436 1.16333 5.62821M12.903 5.03591V14.1179C12.9338 14.3812 12.903 14.9866 12.5332 15.3025C12.3819 15.4318 11.8331 15.764 11.1467 16.1609C10.745 16.3932 10.2963 16.6476 9.85253 16.8965C9.20171 17.2616 8.56153 17.6149 8.09619 17.8692C7.83472 17.9453 7.29453 18.045 6.8236 17.9778M1.16333 5.62821C1.45913 5.86514 5.1289 7.30641 6.8236 7.99744M1.16333 5.62821C1.16333 8.29359 1.16333 13.723 1.16333 14.1179C1.16333 14.6115 1.71798 14.9077 1.90285 15.1051C2.08773 15.3025 5.78525 17.573 6.43232 17.8692C6.55063 17.9233 6.35268 17.9106 6.8236 17.9778M6.8236 7.99744V17.9778M8.65084 10.0705L10.4072 11.5513M8.65084 12.1436L10.4072 9.57691" stroke="#003444" stroke-width="0.7"/>
</svg>
