<svg width="12" height="17" viewBox="0 0 12 17" fill="none" xmlns="http://www.w3.org/2000/svg">
<path d="M3.38854 14.1497C2.57163 15.0227 1.63872 15.1606 1.289 15.0435C1.16609 15.0023 1.0863 14.8175 1.04278 14.5615M3.38854 14.1497C3.69623 14.2858 4.41167 14.5196 4.81194 14.3649M3.38854 14.1497C4.65964 11.8292 6.77095 7.95095 8.1087 5.42987M7.67511 1.66216C7.48846 1.6797 7.34369 1.77056 7.24584 1.92661C7.16849 2.04996 6.67418 2.90194 5.98043 4.11289M7.67511 1.66216C7.93376 1.63784 8.27284 1.75429 8.67898 2.03312C9.16381 2.36596 9.46079 2.50495 9.34381 2.99819C9.31135 3.13505 8.81909 4.09111 8.1087 5.42987M7.67511 1.66216C7.98814 1.40937 8.65659 0.935082 8.82611 1.06023C9.038 1.21667 9.69206 1.56436 9.90395 1.7208C10.1158 1.87723 11.2163 2.38846 11.1958 2.52394C11.1753 2.65941 5.31227 14.1716 4.81194 14.3649M4.81194 14.3649C4.38575 15.1779 3.72707 16.0869 3.22972 16.2605C2.70208 16.4447 1.54873 16.6283 1.29549 16.59C0.983516 16.5428 0.973506 15.2144 1.04278 14.5615M1.04278 14.5615C0.953391 14.0357 1.017 13.2097 1.17425 12.7115C2.41875 10.3731 4.59645 6.52866 5.98043 4.11289M5.98043 4.11289L8.1087 5.42987" stroke="#003444" stroke-width="0.7"/>
</svg>
