<svg width="17" height="20" viewBox="0 0 17 20" fill="none" xmlns="http://www.w3.org/2000/svg">
<path d="M12.3604 17.6421L1.26609 10.973M12.3604 17.6421C12.3604 16.0968 12.3604 12.4857 12.3604 10.4037C12.3604 8.32159 10.5501 5.68648 9.64499 4.62918C8.81745 3.73454 6.71238 1.96154 4.91247 2.0266C4.59498 2.03808 4.31144 2.10034 4.05905 2.19971M12.3604 17.6421C12.7742 17.859 13.6793 18.3849 13.6793 18.7807C13.6793 19.2687 13.7569 19.4057 13.4465 19.594M12.3604 17.6421L14.9982 15.9341M1.26609 10.973L2.02045 10.5472C2.17752 10.4585 2.27466 10.2921 2.27466 10.1117V4.62918C2.38116 3.93701 2.8806 2.66372 4.05905 2.19971M1.26609 10.973C0.761807 11.2576 0.80059 11.4938 0.80059 11.6236C0.80059 11.7535 0.80059 12.0303 1.03334 12.1929L5.84345 15.2299M13.4465 19.594L16.1779 17.9363C16.3141 17.8536 16.4059 17.7106 16.396 17.5515C16.3752 17.2169 16.265 16.7549 15.9292 16.5035C15.4947 16.1781 15.1275 15.9884 14.9982 15.9341M13.4465 19.594C13.2939 19.6867 11.5331 18.6855 9.87773 17.7081M14.9982 15.9341V8.93971C14.7913 7.96374 14.1008 5.45639 12.5931 3.57189C10.576 1.05064 8.63641 0.399994 7.93817 0.399994C7.23993 0.399994 5.6107 0.568674 4.05905 2.19971M9.87773 17.7081C9.50371 17.4873 9.13507 17.2677 8.79158 17.0622M9.87773 17.7081C9.62067 17.8952 9.19779 18.2006 8.79158 18.4386M5.84345 15.2299L7.86059 16.5035C8.13306 16.6673 8.44987 16.8577 8.79158 17.0622M5.84345 15.2299C5.81758 15.4646 5.72112 16.1063 5.84345 16.7474C5.99861 17.5608 7.39509 18.6994 7.86059 18.7807C8.06494 18.8164 8.42133 18.6555 8.79158 18.4386M8.79158 17.0622V18.4386" stroke="#003444" stroke-width="0.7"/>
</svg>
