<svg width="19" height="18" viewBox="0 0 19 18" fill="none" xmlns="http://www.w3.org/2000/svg">
<path d="M1.27301 12.7253L5.63453 9.15426C6.02215 8.83689 6.57901 8.8342 6.96968 9.14779V9.14779M1.27301 12.7253C1.27301 12.7253 0.6587 13.8685 1.27301 15.3165C1.88732 16.7646 2.36764 17.298 3.0602 16.8408M1.27301 12.7253C1.27301 12.7253 2.36908 12.8777 3.0602 14.0971C3.75132 15.3165 3.50704 15.5832 3.0602 16.8408M3.0602 16.8408C4.47297 15.7092 6.44341 14.1309 7.48593 13.2959C7.93713 12.9345 8.19838 12.3888 8.19838 11.8107V11.8107M6.96968 9.14779L7.45034 9.53362C7.92324 9.91322 8.19838 10.4869 8.19838 11.0933V11.8107M6.96968 9.14779C7.0855 8.99718 7.35692 8.65025 7.52818 8.4574M8.19838 11.8107C8.43298 11.6187 8.83315 11.2934 9.14181 11.0486M7.52818 8.4574C7.90747 8.03027 8.23708 7.76369 8.42177 7.8477C8.75687 8.00012 9.42707 8.16151 9.53877 9.14779C9.65047 10.1341 9.76217 10.5913 9.53877 10.7438C9.47266 10.7889 9.323 10.9049 9.14181 11.0486M7.52818 8.4574L7.41509 4.95162C7.41509 3.12251 9.31537 1.50682 11.5494 1.141C14.3418 0.68372 15.6822 1.44589 16.3524 1.90312C16.6875 2.13173 17.8045 2.97009 17.9162 4.18949C18.0279 5.40889 18.0279 6.47587 17.9162 8.15254C17.8151 9.67054 16.1274 11.6923 13.7833 11.8107C10.7675 11.9632 9.42707 11.3535 9.14181 11.0486M8.64517 4.95162C8.60794 6.32345 9.3039 8.60982 12.443 8.60982C16.129 8.60982 16.9109 6.32345 16.9109 5.40889C16.9109 4.95162 16.4659 2.20796 13.0015 2.20796C9.53877 2.20796 8.66586 4.18949 8.64517 4.95162Z" stroke="#86989D" stroke-width="0.7"/>
</svg>
