<svg width="56" height="56" viewBox="0 0 56 56" fill="none" xmlns="http://www.w3.org/2000/svg">
<path fill-rule="evenodd" clip-rule="evenodd" d="M28 0C12.5563 0 0 12.5563 0 28C0 43.4437 12.5563 56 28 56C43.4437 56 56 43.4437 56 28C56 12.5563 43.4437 0 28 0Z" fill="#09B425"/>
<path fill-rule="evenodd" clip-rule="evenodd" d="M41.5406 18.561C42.2188 19.2391 42.2188 20.3547 41.5406 21.0329L25.1344 37.4391C24.7953 37.7782 24.3469 37.9532 23.8985 37.9532C23.45 37.9532 23.0016 37.7782 22.6625 37.4391L14.4594 29.236C13.7813 28.5579 13.7813 27.4422 14.4594 26.7641C15.1375 26.086 16.2531 26.086 16.9313 26.7641L23.8985 33.7313L39.0688 18.561C39.7469 17.8719 40.8625 17.8719 41.5406 18.561Z" fill="white"/>
</svg>
