<svg width="17" height="16" viewBox="0 0 17 16" fill="none" xmlns="http://www.w3.org/2000/svg">
<path d="M2.16016 4.53213L4.45604 3.2108C4.46492 3.20569 4.47286 3.19927 4.47997 3.1919C4.5765 3.09185 4.8211 2.90061 5.11291 2.85429C5.38588 2.81096 5.65658 2.82942 5.78969 2.84816C5.81477 2.85169 5.84037 2.84664 5.86163 2.83289L7.83713 1.55532C7.94738 1.48516 8.23524 1.34484 8.50466 1.34484C8.84143 1.34484 9.09401 1.41099 9.26239 1.48316C9.43077 1.55532 10.82 2.01838 11.728 3.70824C12.396 4.95134 12.5762 5.76427 12.5884 6.08343C12.5901 6.12682 12.615 6.16626 12.6548 6.18367C13.117 6.38595 14.0492 6.98289 14.5665 7.99003C15.0913 9.01176 15.2511 9.80186 15.2688 10.1007C15.2699 10.1205 15.2761 10.1392 15.2875 10.1555C15.6219 10.6356 16.0498 11.6006 16.012 12.3193C15.9639 13.2334 15.9158 13.2815 15.8496 13.4198C15.7997 13.5242 15.7066 13.6226 15.6592 13.6654C15.6539 13.6701 15.648 13.6741 15.6418 13.6775L13.2246 14.9948" stroke="#003444" stroke-width="0.7" stroke-linecap="round"/>
<path d="M2.19993 9.21984C2.86195 9.88171 3.24701 10.2674 3.76965 10.7898C3.77299 10.7931 3.7766 10.7963 3.78038 10.7991L5.87478 12.3699C7.62478 13.4199 11.2298 15.5199 11.6498 15.5199C12.1748 15.5199 12.6998 15.5199 13.2248 14.9949C13.642 14.5776 13.0576 12.7443 12.7067 11.8623C12.702 11.8505 12.6999 11.8384 12.6994 11.8257C12.6924 11.6248 12.5808 10.9628 12.1748 9.74486C11.766 8.51865 10.6612 7.85595 10.1183 7.66C10.0907 7.65001 10.0685 7.62911 10.0576 7.6018L9.0324 5.03892C9.02737 5.02635 9.02038 5.01547 9.01083 5.00587C8.47587 4.46747 7.12377 2.91986 5.87478 2.91986C4.74685 2.91986 4.3762 4.04174 4.31089 4.77907C4.30303 4.86782 4.18978 4.91466 4.12106 4.85797C3.52663 4.36761 2.43078 3.88606 1.67493 5.01984C0.62493 6.59484 1.14971 8.16986 2.19993 9.21984Z" stroke="#003444" stroke-width="0.7"/>
<path d="M6.65725 6.64295L8.10247 9.30848L7.28869 8.83857L7.28208 11.1578L6.64546 10.7903L6.01029 10.4236L6.01691 8.10429L5.20312 7.6345L6.65725 6.64295Z" fill="#003444"/>
</svg>
